<?xml version="1.0" encoding="utf-8" standalone="no"?>
<!DOCTYPE svg PUBLIC "-//W3C//DTD SVG 1.1//EN"
  "http://www.w3.org/Graphics/SVG/1.1/DTD/svg11.dtd">
<svg xmlns:xlink="http://www.w3.org/1999/xlink" width="565.686199pt" height="363.640375pt" viewBox="0 0 565.686199 363.640375" xmlns="http://www.w3.org/2000/svg" version="1.1">
 <metadata>
  <rdf:RDF xmlns:dc="http://purl.org/dc/elements/1.1/" xmlns:cc="http://creativecommons.org/ns#" xmlns:rdf="http://www.w3.org/1999/02/22-rdf-syntax-ns#">
   <cc:Work>
    <dc:type rdf:resource="http://purl.org/dc/dcmitype/StillImage"/>
    <dc:date>2024-09-11T12:56:46.420126</dc:date>
    <dc:format>image/svg+xml</dc:format>
    <dc:creator>
     <cc:Agent>
      <dc:title>Matplotlib v3.6.3, https://matplotlib.org/</dc:title>
     </cc:Agent>
    </dc:creator>
   </cc:Work>
  </rdf:RDF>
 </metadata>
 <defs>
  <style type="text/css">*{stroke-linejoin: round; stroke-linecap: butt}</style>
 </defs>
 <g id="figure_1">
  <g id="patch_1">
   <path d="M 0 363.640375 
L 565.686199 363.640375 
L 565.686199 0 
L 0 0 
z
" style="fill: #ffffff"/>
  </g>
  <g id="axes_1">
   <g id="patch_2">
    <path d="M 44.160297 338.746696 
L 558.486199 338.746696 
L 558.486199 22.926587 
L 44.160297 22.926587 
z
" style="fill: #ffffff"/>
   </g>
   <g id="matplotlib.axis_1">
    <g id="xtick_1">
     <g id="line2d_1">
      <defs>
       <path id="m69228c6485" d="M 0 0 
L 0 3.5 
" style="stroke: #000000; stroke-width: 0.8"/>
      </defs>
      <g>
       <use xlink:href="#m69228c6485" x="172.741772" y="338.746696" style="stroke: #000000; stroke-width: 0.8"/>
      </g>
     </g>
     <g id="text_1">
      <!-- cvc5 filters -->
      <g transform="translate(146.345116 353.85218) scale(0.12 -0.12)">
       <defs>
        <path id="NimbusRomNo9L-Regu-63" d="M 2547 998 
C 2240 550 2010 396 1645 396 
C 1062 396 653 908 653 1644 
C 653 2303 1005 2758 1523 2758 
C 1754 2758 1837 2687 1901 2451 
L 1939 2310 
C 1990 2131 2106 2015 2240 2015 
C 2406 2015 2547 2137 2547 2284 
C 2547 2643 2099 2944 1562 2944 
C 1248 2944 922 2815 659 2585 
C 339 2303 160 1868 160 1363 
C 160 531 666 -64 1376 -64 
C 1664 -64 1920 38 2150 236 
C 2323 390 2445 563 2637 940 
L 2547 998 
z
" transform="scale(0.015625)"/>
        <path id="NimbusRomNo9L-Regu-76" d="M 3053 2880 
L 2163 2880 
L 2163 2783 
C 2368 2764 2464 2701 2464 2580 
C 2464 2517 2451 2454 2426 2390 
L 1792 748 
L 1139 2371 
C 1101 2460 1082 2549 1082 2606 
C 1082 2720 1152 2764 1376 2783 
L 1376 2880 
L 122 2880 
L 122 2783 
C 365 2771 410 2707 704 2054 
L 1472 235 
C 1485 197 1504 152 1523 102 
C 1562 -13 1600 -64 1638 -64 
C 1677 -64 1722 19 1818 254 
L 2637 2289 
C 2822 2720 2861 2764 3053 2783 
L 3053 2880 
z
" transform="scale(0.015625)"/>
        <path id="NimbusRomNo9L-Regu-35" d="M 1158 3718 
L 2413 3718 
C 2515 3718 2541 3731 2560 3775 
L 2803 4345 
L 2746 4390 
C 2650 4256 2586 4224 2451 4224 
L 1114 4224 
L 416 2717 
C 410 2705 410 2698 410 2686 
C 410 2654 435 2635 486 2635 
C 691 2635 947 2591 1210 2508 
C 1946 2274 2285 1882 2285 1255 
C 2285 647 1894 172 1395 172 
C 1267 172 1158 217 966 356 
C 762 502 614 565 480 565 
C 294 565 205 489 205 331 
C 205 89 506 -64 986 -64 
C 1523 -64 1984 108 2304 432 
C 2598 717 2733 1078 2733 1559 
C 2733 2015 2611 2306 2291 2622 
C 2010 2901 1645 3047 890 3180 
L 1158 3718 
z
" transform="scale(0.015625)"/>
        <path id="NimbusRomNo9L-Regu-2" d="M 198 2668 
L 634 2668 
L 634 601 
C 634 192 563 108 205 96 
L 205 0 
L 1613 0 
L 1613 96 
C 1254 121 1171 211 1171 563 
L 1171 2668 
L 1722 2668 
C 2336 2668 2368 2649 2368 2310 
L 2368 620 
C 2368 185 2323 128 1926 96 
L 1926 0 
L 3334 0 
L 3334 96 
C 2976 128 2906 211 2906 620 
L 2906 2297 
C 2906 2438 2906 2585 2918 2924 
L 2893 2944 
C 2611 2898 2426 2880 2170 2880 
L 1165 2880 
L 1165 3151 
C 1165 3428 1184 3624 1216 3731 
C 1306 4002 1555 4191 1843 4191 
C 2022 4191 2144 4109 2298 3895 
C 2419 3725 2502 3662 2611 3662 
C 2746 3662 2842 3769 2842 3908 
C 2842 4173 2522 4352 2029 4352 
C 1542 4352 1171 4185 941 3876 
C 749 3617 678 3384 640 2880 
L 198 2880 
L 198 2668 
z
" transform="scale(0.015625)"/>
        <path id="NimbusRomNo9L-Regu-6c" d="M 122 3987 
L 160 3987 
C 230 3993 307 4000 358 4000 
C 563 4000 627 3910 627 3609 
L 627 556 
C 627 211 538 128 134 96 
L 134 0 
L 1645 0 
L 1645 96 
C 1242 121 1165 185 1165 537 
L 1165 4358 
L 1139 4371 
C 806 4262 563 4198 122 4089 
L 122 3987 
z
" transform="scale(0.015625)"/>
        <path id="NimbusRomNo9L-Regu-74" d="M 1632 2880 
L 986 2880 
L 986 3622 
C 986 3686 979 3705 941 3705 
C 896 3648 858 3590 813 3526 
C 570 3174 294 2867 192 2841 
C 122 2796 83 2751 83 2719 
C 83 2700 90 2687 109 2675 
L 448 2675 
L 448 748 
C 448 211 640 -64 1018 -64 
C 1331 -64 1574 89 1786 422 
L 1702 492 
C 1568 332 1459 268 1318 268 
C 1082 268 986 441 986 844 
L 986 2675 
L 1632 2675 
L 1632 2880 
z
" transform="scale(0.015625)"/>
        <path id="NimbusRomNo9L-Regu-65" d="M 2611 1052 
C 2304 564 2029 377 1619 377 
C 1254 377 979 564 794 930 
C 678 1174 634 1386 621 1779 
L 2592 1779 
C 2541 2193 2477 2377 2317 2580 
C 2125 2809 1830 2944 1498 2944 
C 1178 2944 877 2828 634 2612 
C 333 2351 160 1900 160 1374 
C 160 486 621 -64 1357 -64 
C 1965 -64 2445 313 2714 1007 
L 2611 1052 
z
M 634 1984 
C 704 2478 922 2713 1312 2713 
C 1702 2713 1856 2535 1939 1984 
L 634 1984 
z
" transform="scale(0.015625)"/>
        <path id="NimbusRomNo9L-Regu-72" d="M 45 2496 
C 134 2515 192 2521 269 2521 
C 429 2521 486 2419 486 2137 
L 486 537 
C 486 217 442 172 32 96 
L 32 0 
L 1568 0 
L 1568 96 
C 1133 115 1024 211 1024 576 
L 1024 2016 
C 1024 2220 1299 2540 1472 2540 
C 1510 2540 1568 2508 1638 2444 
C 1741 2355 1811 2316 1894 2316 
C 2048 2316 2144 2425 2144 2604 
C 2144 2815 2010 2944 1792 2944 
C 1523 2944 1338 2796 1024 2342 
L 1024 2931 
L 992 2944 
C 653 2803 422 2720 45 2598 
L 45 2496 
z
" transform="scale(0.015625)"/>
        <path id="NimbusRomNo9L-Regu-73" d="M 2016 2009 
L 1990 2880 
L 1920 2880 
L 1907 2867 
C 1850 2822 1843 2815 1818 2815 
C 1779 2815 1715 2828 1645 2860 
C 1504 2918 1363 2944 1197 2944 
C 691 2944 326 2617 326 2155 
C 326 1796 531 1539 1075 1231 
L 1446 1019 
C 1670 891 1779 737 1779 538 
C 1779 256 1574 76 1248 76 
C 1030 76 832 160 710 301 
C 576 461 518 609 435 974 
L 333 974 
L 333 -26 
L 416 -26 
C 461 38 486 51 563 51 
C 621 51 710 38 858 0 
C 1037 -39 1210 -64 1325 -64 
C 1818 -64 2227 307 2227 756 
C 2227 1077 2074 1289 1690 1520 
L 998 1930 
C 819 2033 723 2193 723 2366 
C 723 2623 922 2803 1216 2803 
C 1581 2803 1773 2585 1920 2014 
L 2016 2009 
z
" transform="scale(0.015625)"/>
       </defs>
       <use xlink:href="#NimbusRomNo9L-Regu-63" transform="scale(0.996264)"/>
       <use xlink:href="#NimbusRomNo9L-Regu-76" transform="translate(44.233569 0) scale(0.996264)"/>
       <use xlink:href="#NimbusRomNo9L-Regu-63" transform="translate(94.046769 0) scale(0.996264)"/>
       <use xlink:href="#NimbusRomNo9L-Regu-35" transform="translate(138.280338 0) scale(0.996264)"/>
       <use xlink:href="#NimbusRomNo9L-Regu-2" transform="translate(213.000139 0) scale(0.996264)"/>
       <use xlink:href="#NimbusRomNo9L-Regu-6c" transform="translate(268.391816 0) scale(0.996264)"/>
       <use xlink:href="#NimbusRomNo9L-Regu-74" transform="translate(296.086985 0) scale(0.996264)"/>
       <use xlink:href="#NimbusRomNo9L-Regu-65" transform="translate(323.782155 0) scale(0.996264)"/>
       <use xlink:href="#NimbusRomNo9L-Regu-72" transform="translate(368.015724 0) scale(0.996264)"/>
       <use xlink:href="#NimbusRomNo9L-Regu-73" transform="translate(401.190953 0) scale(0.996264)"/>
      </g>
     </g>
    </g>
    <g id="xtick_2">
     <g id="line2d_2">
      <g>
       <use xlink:href="#m69228c6485" x="429.904724" y="338.746696" style="stroke: #000000; stroke-width: 0.8"/>
      </g>
     </g>
     <g id="text_2">
      <!-- z3 -->
      <g transform="translate(424.261921 353.85218) scale(0.12 -0.12)">
       <defs>
        <path id="NimbusRomNo9L-Regu-7a" d="M 2675 864 
L 2560 889 
C 2496 569 2458 467 2374 358 
C 2285 249 2067 192 1741 192 
L 858 192 
L 2579 2783 
L 2579 2880 
L 358 2880 
L 339 2124 
L 454 2124 
C 512 2592 608 2687 992 2687 
L 1875 2687 
L 173 96 
L 173 0 
L 2586 0 
L 2675 864 
z
" transform="scale(0.015625)"/>
        <path id="NimbusRomNo9L-Regu-33" d="M 979 2137 
C 1357 2137 1504 2124 1658 2067 
C 2054 1926 2304 1561 2304 1120 
C 2304 582 1939 166 1466 166 
C 1293 166 1165 211 928 364 
C 736 480 627 524 518 524 
C 371 524 275 435 275 300 
C 275 76 550 -64 998 -64 
C 1491 -64 1997 102 2298 364 
C 2598 627 2765 998 2765 1427 
C 2765 1753 2662 2054 2477 2252 
C 2349 2393 2227 2470 1946 2592 
C 2387 2892 2547 3129 2547 3475 
C 2547 3993 2138 4352 1549 4352 
C 1229 4352 947 4243 717 4038 
C 525 3865 429 3699 288 3315 
L 384 3289 
C 646 3757 934 3967 1338 3967 
C 1754 3967 2042 3686 2042 3283 
C 2042 3052 1946 2822 1786 2662 
C 1594 2470 1414 2374 979 2220 
L 979 2137 
z
" transform="scale(0.015625)"/>
       </defs>
       <use xlink:href="#NimbusRomNo9L-Regu-7a" transform="scale(0.996264)"/>
       <use xlink:href="#NimbusRomNo9L-Regu-33" transform="translate(44.233569 0) scale(0.996264)"/>
      </g>
     </g>
    </g>
   </g>
   <g id="matplotlib.axis_2">
    <g id="ytick_1">
     <g id="line2d_3">
      <defs>
       <path id="m2cab8fcbc6" d="M 0 0 
L -3.5 0 
" style="stroke: #000000; stroke-width: 0.8"/>
      </defs>
      <g>
       <use xlink:href="#m2cab8fcbc6" x="44.160297" y="325.06594" style="stroke: #000000; stroke-width: 0.8"/>
      </g>
     </g>
     <g id="text_3">
      <!-- $\mathdefault{0.0}$ -->
      <g transform="translate(21.893679 329.118682) scale(0.12 -0.12)">
       <defs>
        <path id="NimbusRomNo9L-Regu-30" d="M 1626 4352 
C 1274 4352 1005 4243 768 4019 
C 397 3661 154 2924 154 2176 
C 154 1478 365 729 666 371 
C 902 89 1229 -64 1600 -64 
C 1926 -64 2202 44 2432 268 
C 2803 620 3046 1363 3046 2137 
C 3046 3449 2464 4352 1626 4352 
z
M 1606 4185 
C 2144 4185 2432 3462 2432 2124 
C 2432 787 2150 102 1600 102 
C 1050 102 768 787 768 2118 
C 768 3475 1056 4185 1606 4185 
z
" transform="scale(0.015625)"/>
        <path id="CMMI10-3a" d="M 1229 339 
C 1229 524 1075 678 890 678 
C 704 678 550 524 550 339 
C 550 153 704 0 890 0 
C 1075 0 1229 153 1229 339 
z
" transform="scale(0.015625)"/>
       </defs>
       <use xlink:href="#NimbusRomNo9L-Regu-30" transform="scale(0.996264)"/>
       <use xlink:href="#CMMI10-3a" transform="translate(49.8132 0) scale(0.996264)"/>
       <use xlink:href="#NimbusRomNo9L-Regu-30" transform="translate(77.408707 0) scale(0.996264)"/>
      </g>
     </g>
    </g>
    <g id="ytick_2">
     <g id="line2d_4">
      <g>
       <use xlink:href="#m2cab8fcbc6" x="44.160297" y="274.334292" style="stroke: #000000; stroke-width: 0.8"/>
      </g>
     </g>
     <g id="text_4">
      <!-- $\mathdefault{0.5}$ -->
      <g transform="translate(21.893679 278.387034) scale(0.12 -0.12)">
       <use xlink:href="#NimbusRomNo9L-Regu-30" transform="scale(0.996264)"/>
       <use xlink:href="#CMMI10-3a" transform="translate(49.8132 0) scale(0.996264)"/>
       <use xlink:href="#NimbusRomNo9L-Regu-35" transform="translate(77.408707 0) scale(0.996264)"/>
      </g>
     </g>
    </g>
    <g id="ytick_3">
     <g id="line2d_5">
      <g>
       <use xlink:href="#m2cab8fcbc6" x="44.160297" y="223.602644" style="stroke: #000000; stroke-width: 0.8"/>
      </g>
     </g>
     <g id="text_5">
      <!-- $\mathdefault{1.0}$ -->
      <g transform="translate(21.893679 227.655386) scale(0.12 -0.12)">
       <defs>
        <path id="NimbusRomNo9L-Regu-31" d="M 1862 4352 
L 710 3776 
L 710 3686 
C 787 3718 858 3743 883 3756 
C 998 3801 1107 3826 1171 3826 
C 1306 3826 1363 3731 1363 3525 
L 1363 599 
C 1363 386 1312 238 1210 179 
C 1114 121 1024 102 755 96 
L 755 0 
L 2522 0 
L 2522 96 
C 2016 102 1914 167 1914 477 
L 1914 4339 
L 1862 4352 
z
" transform="scale(0.015625)"/>
       </defs>
       <use xlink:href="#NimbusRomNo9L-Regu-31" transform="scale(0.996264)"/>
       <use xlink:href="#CMMI10-3a" transform="translate(49.8132 0) scale(0.996264)"/>
       <use xlink:href="#NimbusRomNo9L-Regu-30" transform="translate(77.408707 0) scale(0.996264)"/>
      </g>
     </g>
    </g>
    <g id="ytick_4">
     <g id="line2d_6">
      <g>
       <use xlink:href="#m2cab8fcbc6" x="44.160297" y="172.870995" style="stroke: #000000; stroke-width: 0.8"/>
      </g>
     </g>
     <g id="text_6">
      <!-- $\mathdefault{1.5}$ -->
      <g transform="translate(21.893679 176.923737) scale(0.12 -0.12)">
       <use xlink:href="#NimbusRomNo9L-Regu-31" transform="scale(0.996264)"/>
       <use xlink:href="#CMMI10-3a" transform="translate(49.8132 0) scale(0.996264)"/>
       <use xlink:href="#NimbusRomNo9L-Regu-35" transform="translate(77.408707 0) scale(0.996264)"/>
      </g>
     </g>
    </g>
    <g id="ytick_5">
     <g id="line2d_7">
      <g>
       <use xlink:href="#m2cab8fcbc6" x="44.160297" y="122.139347" style="stroke: #000000; stroke-width: 0.8"/>
      </g>
     </g>
     <g id="text_7">
      <!-- $\mathdefault{2.0}$ -->
      <g transform="translate(21.893679 126.192089) scale(0.12 -0.12)">
       <defs>
        <path id="NimbusRomNo9L-Regu-32" d="M 3040 879 
L 2957 912 
C 2720 544 2637 486 2349 486 
L 819 486 
L 1894 1621 
C 2464 2221 2714 2711 2714 3214 
C 2714 3858 2195 4352 1530 4352 
C 1178 4352 845 4211 608 3955 
C 403 3736 307 3530 198 3072 
L 333 3039 
C 589 3671 819 3878 1261 3878 
C 1798 3878 2163 3510 2163 2969 
C 2163 2466 1869 1866 1331 1292 
L 192 76 
L 192 0 
L 2688 0 
L 3040 879 
z
" transform="scale(0.015625)"/>
       </defs>
       <use xlink:href="#NimbusRomNo9L-Regu-32" transform="scale(0.996264)"/>
       <use xlink:href="#CMMI10-3a" transform="translate(49.8132 0) scale(0.996264)"/>
       <use xlink:href="#NimbusRomNo9L-Regu-30" transform="translate(77.408707 0) scale(0.996264)"/>
      </g>
     </g>
    </g>
    <g id="ytick_6">
     <g id="line2d_8">
      <g>
       <use xlink:href="#m2cab8fcbc6" x="44.160297" y="71.407699" style="stroke: #000000; stroke-width: 0.8"/>
      </g>
     </g>
     <g id="text_8">
      <!-- $\mathdefault{2.5}$ -->
      <g transform="translate(21.893679 75.460441) scale(0.12 -0.12)">
       <use xlink:href="#NimbusRomNo9L-Regu-32" transform="scale(0.996264)"/>
       <use xlink:href="#CMMI10-3a" transform="translate(49.8132 0) scale(0.996264)"/>
       <use xlink:href="#NimbusRomNo9L-Regu-35" transform="translate(77.408707 0) scale(0.996264)"/>
      </g>
     </g>
    </g>
    <g id="text_9">
     <!-- seconds -->
     <g transform="translate(15.305484 199.761477) rotate(-90) scale(0.12 -0.12)">
      <defs>
       <path id="NimbusRomNo9L-Regu-6f" d="M 1600 2944 
C 768 2944 186 2329 186 1446 
C 186 582 781 -64 1587 -64 
C 2394 -64 3008 614 3008 1497 
C 3008 2336 2419 2944 1600 2944 
z
M 1517 2764 
C 2054 2764 2432 2150 2432 1273 
C 2432 550 2144 115 1664 115 
C 1414 115 1178 268 1043 524 
C 864 857 762 1305 762 1760 
C 762 2368 1062 2764 1517 2764 
z
" transform="scale(0.015625)"/>
       <path id="NimbusRomNo9L-Regu-6e" d="M 102 2547 
C 141 2566 205 2572 275 2572 
C 454 2572 512 2476 512 2163 
L 512 576 
C 512 211 442 121 115 96 
L 115 0 
L 1472 0 
L 1472 96 
C 1146 121 1050 198 1050 428 
L 1050 2227 
C 1357 2515 1498 2591 1709 2591 
C 2022 2591 2176 2393 2176 1971 
L 2176 633 
C 2176 230 2093 121 1773 96 
L 1773 0 
L 3104 0 
L 3104 96 
C 2790 128 2714 204 2714 518 
L 2714 1984 
C 2714 2585 2432 2944 1958 2944 
C 1664 2944 1466 2835 1030 2425 
L 1030 2931 
L 986 2944 
C 672 2828 454 2758 102 2655 
L 102 2547 
z
" transform="scale(0.015625)"/>
       <path id="NimbusRomNo9L-Regu-64" d="M 2202 -64 
L 3142 268 
L 3142 371 
C 3027 364 3014 364 2995 364 
C 2765 364 2714 435 2714 729 
L 2714 4358 
L 2682 4371 
C 2374 4262 2150 4198 1741 4089 
L 1741 3987 
C 1792 3993 1830 3993 1882 3993 
C 2118 3993 2176 3929 2176 3667 
L 2176 2668 
C 1933 2873 1760 2944 1504 2944 
C 768 2944 173 2220 173 1312 
C 173 492 653 -64 1357 -64 
C 1715 -64 1958 64 2176 364 
L 2176 -45 
L 2202 -64 
z
M 2176 652 
C 2176 608 2131 531 2067 460 
C 1952 332 1792 268 1606 268 
C 1075 268 723 780 723 1568 
C 723 2291 1037 2764 1523 2764 
C 1862 2764 2176 2464 2176 2124 
L 2176 652 
z
" transform="scale(0.015625)"/>
      </defs>
      <use xlink:href="#NimbusRomNo9L-Regu-73" transform="scale(0.996264)"/>
      <use xlink:href="#NimbusRomNo9L-Regu-65" transform="translate(38.753706 0) scale(0.996264)"/>
      <use xlink:href="#NimbusRomNo9L-Regu-63" transform="translate(82.987275 0) scale(0.996264)"/>
      <use xlink:href="#NimbusRomNo9L-Regu-6f" transform="translate(127.220844 0) scale(0.996264)"/>
      <use xlink:href="#NimbusRomNo9L-Regu-6e" transform="translate(177.034044 0) scale(0.996264)"/>
      <use xlink:href="#NimbusRomNo9L-Regu-64" transform="translate(226.847245 0) scale(0.996264)"/>
      <use xlink:href="#NimbusRomNo9L-Regu-73" transform="translate(276.660445 0) scale(0.996264)"/>
     </g>
    </g>
   </g>
   <g id="line2d_9">
    <path d="M 153.454551 319.778342 
L 192.028994 319.778342 
L 192.028994 313.994621 
L 153.454551 313.994621 
L 153.454551 319.778342 
" clip-path="url(#p789f6de418)" style="fill: none; stroke: #000000; stroke-linecap: square"/>
   </g>
   <g id="line2d_10">
    <path d="M 172.741772 319.778342 
L 172.741772 324.391237 
" clip-path="url(#p789f6de418)" style="fill: none; stroke: #000000; stroke-linecap: square"/>
   </g>
   <g id="line2d_11">
    <path d="M 172.741772 313.994621 
L 172.741772 305.362538 
" clip-path="url(#p789f6de418)" style="fill: none; stroke: #000000; stroke-linecap: square"/>
   </g>
   <g id="line2d_12">
    <path d="M 163.098162 324.391237 
L 182.385383 324.391237 
" clip-path="url(#p789f6de418)" style="fill: none; stroke: #000000; stroke-linecap: square"/>
   </g>
   <g id="line2d_13">
    <path d="M 163.098162 305.362538 
L 182.385383 305.362538 
" clip-path="url(#p789f6de418)" style="fill: none; stroke: #000000; stroke-linecap: square"/>
   </g>
   <g id="line2d_14">
    <defs>
     <path id="mceef454486" d="M 0 3 
C 0.795609 3 1.55874 2.683901 2.12132 2.12132 
C 2.683901 1.55874 3 0.795609 3 0 
C 3 -0.795609 2.683901 -1.55874 2.12132 -2.12132 
C 1.55874 -2.683901 0.795609 -3 0 -3 
C -0.795609 -3 -1.55874 -2.683901 -2.12132 -2.12132 
C -2.683901 -1.55874 -3 -0.795609 -3 0 
C -3 0.795609 -2.683901 1.55874 -2.12132 2.12132 
C -1.55874 2.683901 -0.795609 3 0 3 
z
" style="stroke: #000000"/>
    </defs>
    <g clip-path="url(#p789f6de418)">
     <use xlink:href="#mceef454486" x="172.741772" y="304.717154" style="fill-opacity: 0; stroke: #000000"/>
     <use xlink:href="#mceef454486" x="172.741772" y="281.314021" style="fill-opacity: 0; stroke: #000000"/>
     <use xlink:href="#mceef454486" x="172.741772" y="277.44418" style="fill-opacity: 0; stroke: #000000"/>
     <use xlink:href="#mceef454486" x="172.741772" y="37.282046" style="fill-opacity: 0; stroke: #000000"/>
     <use xlink:href="#mceef454486" x="172.741772" y="38.660168" style="fill-opacity: 0; stroke: #000000"/>
     <use xlink:href="#mceef454486" x="172.741772" y="283.188996" style="fill-opacity: 0; stroke: #000000"/>
     <use xlink:href="#mceef454486" x="172.741772" y="284.010586" style="fill-opacity: 0; stroke: #000000"/>
     <use xlink:href="#mceef454486" x="172.741772" y="286.164723" style="fill-opacity: 0; stroke: #000000"/>
     <use xlink:href="#mceef454486" x="172.741772" y="270.346498" style="fill-opacity: 0; stroke: #000000"/>
     <use xlink:href="#mceef454486" x="172.741772" y="279.112761" style="fill-opacity: 0; stroke: #000000"/>
     <use xlink:href="#mceef454486" x="172.741772" y="293.471486" style="fill-opacity: 0; stroke: #000000"/>
     <use xlink:href="#mceef454486" x="172.741772" y="234.4638" style="fill-opacity: 0; stroke: #000000"/>
     <use xlink:href="#mceef454486" x="172.741772" y="304.551713" style="fill-opacity: 0; stroke: #000000"/>
     <use xlink:href="#mceef454486" x="172.741772" y="301.244695" style="fill-opacity: 0; stroke: #000000"/>
     <use xlink:href="#mceef454486" x="172.741772" y="300.439216" style="fill-opacity: 0; stroke: #000000"/>
     <use xlink:href="#mceef454486" x="172.741772" y="304.50263" style="fill-opacity: 0; stroke: #000000"/>
     <use xlink:href="#mceef454486" x="172.741772" y="303.374084" style="fill-opacity: 0; stroke: #000000"/>
     <use xlink:href="#mceef454486" x="172.741772" y="301.791865" style="fill-opacity: 0; stroke: #000000"/>
     <use xlink:href="#mceef454486" x="172.741772" y="305.274266" style="fill-opacity: 0; stroke: #000000"/>
     <use xlink:href="#mceef454486" x="172.741772" y="300.551122" style="fill-opacity: 0; stroke: #000000"/>
     <use xlink:href="#mceef454486" x="172.741772" y="304.094242" style="fill-opacity: 0; stroke: #000000"/>
     <use xlink:href="#mceef454486" x="172.741772" y="302.289831" style="fill-opacity: 0; stroke: #000000"/>
     <use xlink:href="#mceef454486" x="172.741772" y="301.955007" style="fill-opacity: 0; stroke: #000000"/>
     <use xlink:href="#mceef454486" x="172.741772" y="300.221886" style="fill-opacity: 0; stroke: #000000"/>
     <use xlink:href="#mceef454486" x="172.741772" y="297.17187" style="fill-opacity: 0; stroke: #000000"/>
     <use xlink:href="#mceef454486" x="172.741772" y="299.590242" style="fill-opacity: 0; stroke: #000000"/>
     <use xlink:href="#mceef454486" x="172.741772" y="257.909533" style="fill-opacity: 0; stroke: #000000"/>
     <use xlink:href="#mceef454486" x="172.741772" y="296.919609" style="fill-opacity: 0; stroke: #000000"/>
     <use xlink:href="#mceef454486" x="172.741772" y="302.21155" style="fill-opacity: 0; stroke: #000000"/>
     <use xlink:href="#mceef454486" x="172.741772" y="299.748377" style="fill-opacity: 0; stroke: #000000"/>
     <use xlink:href="#mceef454486" x="172.741772" y="260.009797" style="fill-opacity: 0; stroke: #000000"/>
     <use xlink:href="#mceef454486" x="172.741772" y="264.119416" style="fill-opacity: 0; stroke: #000000"/>
     <use xlink:href="#mceef454486" x="172.741772" y="286.497587" style="fill-opacity: 0; stroke: #000000"/>
     <use xlink:href="#mceef454486" x="172.741772" y="264.607294" style="fill-opacity: 0; stroke: #000000"/>
     <use xlink:href="#mceef454486" x="172.741772" y="296.025931" style="fill-opacity: 0; stroke: #000000"/>
     <use xlink:href="#mceef454486" x="172.741772" y="291.060855" style="fill-opacity: 0; stroke: #000000"/>
     <use xlink:href="#mceef454486" x="172.741772" y="301.482417" style="fill-opacity: 0; stroke: #000000"/>
     <use xlink:href="#mceef454486" x="172.741772" y="294.974601" style="fill-opacity: 0; stroke: #000000"/>
     <use xlink:href="#mceef454486" x="172.741772" y="288.005734" style="fill-opacity: 0; stroke: #000000"/>
     <use xlink:href="#mceef454486" x="172.741772" y="299.869814" style="fill-opacity: 0; stroke: #000000"/>
     <use xlink:href="#mceef454486" x="172.741772" y="252.88669" style="fill-opacity: 0; stroke: #000000"/>
     <use xlink:href="#mceef454486" x="172.741772" y="304.92829" style="fill-opacity: 0; stroke: #000000"/>
     <use xlink:href="#mceef454486" x="172.741772" y="303.307656" style="fill-opacity: 0; stroke: #000000"/>
     <use xlink:href="#mceef454486" x="172.741772" y="303.235447" style="fill-opacity: 0; stroke: #000000"/>
     <use xlink:href="#mceef454486" x="172.741772" y="303.170616" style="fill-opacity: 0; stroke: #000000"/>
     <use xlink:href="#mceef454486" x="172.741772" y="305.037342" style="fill-opacity: 0; stroke: #000000"/>
     <use xlink:href="#mceef454486" x="172.741772" y="305.176463" style="fill-opacity: 0; stroke: #000000"/>
     <use xlink:href="#mceef454486" x="172.741772" y="279.477992" style="fill-opacity: 0; stroke: #000000"/>
     <use xlink:href="#mceef454486" x="172.741772" y="268.945806" style="fill-opacity: 0; stroke: #000000"/>
     <use xlink:href="#mceef454486" x="172.741772" y="268.35231" style="fill-opacity: 0; stroke: #000000"/>
     <use xlink:href="#mceef454486" x="172.741772" y="267.784046" style="fill-opacity: 0; stroke: #000000"/>
     <use xlink:href="#mceef454486" x="172.741772" y="276.937143" style="fill-opacity: 0; stroke: #000000"/>
     <use xlink:href="#mceef454486" x="172.741772" y="259.8804" style="fill-opacity: 0; stroke: #000000"/>
     <use xlink:href="#mceef454486" x="172.741772" y="304.484197" style="fill-opacity: 0; stroke: #000000"/>
     <use xlink:href="#mceef454486" x="172.741772" y="304.855718" style="fill-opacity: 0; stroke: #000000"/>
     <use xlink:href="#mceef454486" x="172.741772" y="298.772885" style="fill-opacity: 0; stroke: #000000"/>
     <use xlink:href="#mceef454486" x="172.741772" y="265.621418" style="fill-opacity: 0; stroke: #000000"/>
     <use xlink:href="#mceef454486" x="172.741772" y="304.241806" style="fill-opacity: 0; stroke: #000000"/>
     <use xlink:href="#mceef454486" x="172.741772" y="304.712291" style="fill-opacity: 0; stroke: #000000"/>
     <use xlink:href="#mceef454486" x="172.741772" y="302.540617" style="fill-opacity: 0; stroke: #000000"/>
     <use xlink:href="#mceef454486" x="172.741772" y="304.203125" style="fill-opacity: 0; stroke: #000000"/>
     <use xlink:href="#mceef454486" x="172.741772" y="296.444576" style="fill-opacity: 0; stroke: #000000"/>
     <use xlink:href="#mceef454486" x="172.741772" y="298.452068" style="fill-opacity: 0; stroke: #000000"/>
     <use xlink:href="#mceef454486" x="172.741772" y="304.824415" style="fill-opacity: 0; stroke: #000000"/>
     <use xlink:href="#mceef454486" x="172.741772" y="300.419936" style="fill-opacity: 0; stroke: #000000"/>
     <use xlink:href="#mceef454486" x="172.741772" y="294.407038" style="fill-opacity: 0; stroke: #000000"/>
     <use xlink:href="#mceef454486" x="172.741772" y="302.793676" style="fill-opacity: 0; stroke: #000000"/>
     <use xlink:href="#mceef454486" x="172.741772" y="303.328896" style="fill-opacity: 0; stroke: #000000"/>
     <use xlink:href="#mceef454486" x="172.741772" y="299.038113" style="fill-opacity: 0; stroke: #000000"/>
     <use xlink:href="#mceef454486" x="172.741772" y="299.480343" style="fill-opacity: 0; stroke: #000000"/>
     <use xlink:href="#mceef454486" x="172.741772" y="301.55003" style="fill-opacity: 0; stroke: #000000"/>
     <use xlink:href="#mceef454486" x="172.741772" y="300.961082" style="fill-opacity: 0; stroke: #000000"/>
     <use xlink:href="#mceef454486" x="172.741772" y="300.916572" style="fill-opacity: 0; stroke: #000000"/>
     <use xlink:href="#mceef454486" x="172.741772" y="303.119743" style="fill-opacity: 0; stroke: #000000"/>
     <use xlink:href="#mceef454486" x="172.741772" y="299.087583" style="fill-opacity: 0; stroke: #000000"/>
     <use xlink:href="#mceef454486" x="172.741772" y="298.594745" style="fill-opacity: 0; stroke: #000000"/>
     <use xlink:href="#mceef454486" x="172.741772" y="302.955463" style="fill-opacity: 0; stroke: #000000"/>
     <use xlink:href="#mceef454486" x="172.741772" y="303.215635" style="fill-opacity: 0; stroke: #000000"/>
     <use xlink:href="#mceef454486" x="172.741772" y="304.136552" style="fill-opacity: 0; stroke: #000000"/>
     <use xlink:href="#mceef454486" x="172.741772" y="305.253825" style="fill-opacity: 0; stroke: #000000"/>
     <use xlink:href="#mceef454486" x="172.741772" y="303.726543" style="fill-opacity: 0; stroke: #000000"/>
     <use xlink:href="#mceef454486" x="172.741772" y="303.4857" style="fill-opacity: 0; stroke: #000000"/>
     <use xlink:href="#mceef454486" x="172.741772" y="304.158953" style="fill-opacity: 0; stroke: #000000"/>
     <use xlink:href="#mceef454486" x="172.741772" y="303.737429" style="fill-opacity: 0; stroke: #000000"/>
     <use xlink:href="#mceef454486" x="172.741772" y="303.240237" style="fill-opacity: 0; stroke: #000000"/>
     <use xlink:href="#mceef454486" x="172.741772" y="303.761765" style="fill-opacity: 0; stroke: #000000"/>
    </g>
   </g>
   <g id="line2d_15">
    <path d="M 410.617502 319.680266 
L 449.191945 319.680266 
L 449.191945 304.40972 
L 410.617502 304.40972 
L 410.617502 319.680266 
" clip-path="url(#p789f6de418)" style="fill: none; stroke: #000000; stroke-linecap: square"/>
   </g>
   <g id="line2d_16">
    <path d="M 429.904724 319.680266 
L 429.904724 323.137358 
" clip-path="url(#p789f6de418)" style="fill: none; stroke: #000000; stroke-linecap: square"/>
   </g>
   <g id="line2d_17">
    <path d="M 429.904724 304.40972 
L 429.904724 281.656199 
" clip-path="url(#p789f6de418)" style="fill: none; stroke: #000000; stroke-linecap: square"/>
   </g>
   <g id="line2d_18">
    <path d="M 420.261113 323.137358 
L 439.548334 323.137358 
" clip-path="url(#p789f6de418)" style="fill: none; stroke: #000000; stroke-linecap: square"/>
   </g>
   <g id="line2d_19">
    <path d="M 420.261113 281.656199 
L 439.548334 281.656199 
" clip-path="url(#p789f6de418)" style="fill: none; stroke: #000000; stroke-linecap: square"/>
   </g>
   <g id="line2d_20">
    <g clip-path="url(#p789f6de418)">
     <use xlink:href="#mceef454486" x="429.904724" y="251.356674" style="fill-opacity: 0; stroke: #000000"/>
     <use xlink:href="#mceef454486" x="429.904724" y="268.81041" style="fill-opacity: 0; stroke: #000000"/>
     <use xlink:href="#mceef454486" x="429.904724" y="266.256086" style="fill-opacity: 0; stroke: #000000"/>
     <use xlink:href="#mceef454486" x="429.904724" y="264.170506" style="fill-opacity: 0; stroke: #000000"/>
     <use xlink:href="#mceef454486" x="429.904724" y="270.313961" style="fill-opacity: 0; stroke: #000000"/>
     <use xlink:href="#mceef454486" x="429.904724" y="263.667242" style="fill-opacity: 0; stroke: #000000"/>
     <use xlink:href="#mceef454486" x="429.904724" y="260.172431" style="fill-opacity: 0; stroke: #000000"/>
     <use xlink:href="#mceef454486" x="429.904724" y="280.88807" style="fill-opacity: 0; stroke: #000000"/>
     <use xlink:href="#mceef454486" x="429.904724" y="280.934347" style="fill-opacity: 0; stroke: #000000"/>
     <use xlink:href="#mceef454486" x="429.904724" y="261.335933" style="fill-opacity: 0; stroke: #000000"/>
     <use xlink:href="#mceef454486" x="429.904724" y="278.598175" style="fill-opacity: 0; stroke: #000000"/>
     <use xlink:href="#mceef454486" x="429.904724" y="275.268804" style="fill-opacity: 0; stroke: #000000"/>
     <use xlink:href="#mceef454486" x="429.904724" y="266.847647" style="fill-opacity: 0; stroke: #000000"/>
     <use xlink:href="#mceef454486" x="429.904724" y="260.353474" style="fill-opacity: 0; stroke: #000000"/>
     <use xlink:href="#mceef454486" x="429.904724" y="274.476775" style="fill-opacity: 0; stroke: #000000"/>
     <use xlink:href="#mceef454486" x="429.904724" y="276.751164" style="fill-opacity: 0; stroke: #000000"/>
     <use xlink:href="#mceef454486" x="429.904724" y="262.797779" style="fill-opacity: 0; stroke: #000000"/>
     <use xlink:href="#mceef454486" x="429.904724" y="254.021791" style="fill-opacity: 0; stroke: #000000"/>
     <use xlink:href="#mceef454486" x="429.904724" y="269.881528" style="fill-opacity: 0; stroke: #000000"/>
     <use xlink:href="#mceef454486" x="429.904724" y="257.540697" style="fill-opacity: 0; stroke: #000000"/>
     <use xlink:href="#mceef454486" x="429.904724" y="281.379432" style="fill-opacity: 0; stroke: #000000"/>
     <use xlink:href="#mceef454486" x="429.904724" y="261.804725" style="fill-opacity: 0; stroke: #000000"/>
     <use xlink:href="#mceef454486" x="429.904724" y="252.536166" style="fill-opacity: 0; stroke: #000000"/>
     <use xlink:href="#mceef454486" x="429.904724" y="253.871011" style="fill-opacity: 0; stroke: #000000"/>
     <use xlink:href="#mceef454486" x="429.904724" y="226.356251" style="fill-opacity: 0; stroke: #000000"/>
     <use xlink:href="#mceef454486" x="429.904724" y="266.965214" style="fill-opacity: 0; stroke: #000000"/>
     <use xlink:href="#mceef454486" x="429.904724" y="265.547709" style="fill-opacity: 0; stroke: #000000"/>
     <use xlink:href="#mceef454486" x="429.904724" y="235.171645" style="fill-opacity: 0; stroke: #000000"/>
     <use xlink:href="#mceef454486" x="429.904724" y="250.206646" style="fill-opacity: 0; stroke: #000000"/>
     <use xlink:href="#mceef454486" x="429.904724" y="211.674845" style="fill-opacity: 0; stroke: #000000"/>
     <use xlink:href="#mceef454486" x="429.904724" y="258.28819" style="fill-opacity: 0; stroke: #000000"/>
     <use xlink:href="#mceef454486" x="429.904724" y="278.858274" style="fill-opacity: 0; stroke: #000000"/>
     <use xlink:href="#mceef454486" x="429.904724" y="279.037842" style="fill-opacity: 0; stroke: #000000"/>
     <use xlink:href="#mceef454486" x="429.904724" y="279.977579" style="fill-opacity: 0; stroke: #000000"/>
     <use xlink:href="#mceef454486" x="429.904724" y="279.324913" style="fill-opacity: 0; stroke: #000000"/>
     <use xlink:href="#mceef454486" x="429.904724" y="280.583727" style="fill-opacity: 0; stroke: #000000"/>
     <use xlink:href="#mceef454486" x="429.904724" y="275.917043" style="fill-opacity: 0; stroke: #000000"/>
     <use xlink:href="#mceef454486" x="429.904724" y="274.379238" style="fill-opacity: 0; stroke: #000000"/>
     <use xlink:href="#mceef454486" x="429.904724" y="277.210933" style="fill-opacity: 0; stroke: #000000"/>
     <use xlink:href="#mceef454486" x="429.904724" y="272.568151" style="fill-opacity: 0; stroke: #000000"/>
     <use xlink:href="#mceef454486" x="429.904724" y="269.688365" style="fill-opacity: 0; stroke: #000000"/>
     <use xlink:href="#mceef454486" x="429.904724" y="265.076062" style="fill-opacity: 0; stroke: #000000"/>
     <use xlink:href="#mceef454486" x="429.904724" y="266.920146" style="fill-opacity: 0; stroke: #000000"/>
     <use xlink:href="#mceef454486" x="429.904724" y="274.372804" style="fill-opacity: 0; stroke: #000000"/>
     <use xlink:href="#mceef454486" x="429.904724" y="277.249953" style="fill-opacity: 0; stroke: #000000"/>
     <use xlink:href="#mceef454486" x="429.904724" y="280.199868" style="fill-opacity: 0; stroke: #000000"/>
     <use xlink:href="#mceef454486" x="429.904724" y="279.769733" style="fill-opacity: 0; stroke: #000000"/>
     <use xlink:href="#mceef454486" x="429.904724" y="277.718455" style="fill-opacity: 0; stroke: #000000"/>
     <use xlink:href="#mceef454486" x="429.904724" y="270.728977" style="fill-opacity: 0; stroke: #000000"/>
     <use xlink:href="#mceef454486" x="429.904724" y="280.90631" style="fill-opacity: 0; stroke: #000000"/>
     <use xlink:href="#mceef454486" x="429.904724" y="273.04795" style="fill-opacity: 0; stroke: #000000"/>
     <use xlink:href="#mceef454486" x="429.904724" y="273.229671" style="fill-opacity: 0; stroke: #000000"/>
     <use xlink:href="#mceef454486" x="429.904724" y="275.289705" style="fill-opacity: 0; stroke: #000000"/>
     <use xlink:href="#mceef454486" x="429.904724" y="270.424706" style="fill-opacity: 0; stroke: #000000"/>
     <use xlink:href="#mceef454486" x="429.904724" y="263.872622" style="fill-opacity: 0; stroke: #000000"/>
     <use xlink:href="#mceef454486" x="429.904724" y="275.863921" style="fill-opacity: 0; stroke: #000000"/>
     <use xlink:href="#mceef454486" x="429.904724" y="263.266329" style="fill-opacity: 0; stroke: #000000"/>
     <use xlink:href="#mceef454486" x="429.904724" y="276.881431" style="fill-opacity: 0; stroke: #000000"/>
     <use xlink:href="#mceef454486" x="429.904724" y="278.799273" style="fill-opacity: 0; stroke: #000000"/>
     <use xlink:href="#mceef454486" x="429.904724" y="276.593707" style="fill-opacity: 0; stroke: #000000"/>
     <use xlink:href="#mceef454486" x="429.904724" y="275.93659" style="fill-opacity: 0; stroke: #000000"/>
     <use xlink:href="#mceef454486" x="429.904724" y="276.531029" style="fill-opacity: 0; stroke: #000000"/>
     <use xlink:href="#mceef454486" x="429.904724" y="275.90219" style="fill-opacity: 0; stroke: #000000"/>
     <use xlink:href="#mceef454486" x="429.904724" y="280.126618" style="fill-opacity: 0; stroke: #000000"/>
     <use xlink:href="#mceef454486" x="429.904724" y="279.424482" style="fill-opacity: 0; stroke: #000000"/>
     <use xlink:href="#mceef454486" x="429.904724" y="272.347023" style="fill-opacity: 0; stroke: #000000"/>
     <use xlink:href="#mceef454486" x="429.904724" y="275.617998" style="fill-opacity: 0; stroke: #000000"/>
     <use xlink:href="#mceef454486" x="429.904724" y="275.832231" style="fill-opacity: 0; stroke: #000000"/>
     <use xlink:href="#mceef454486" x="429.904724" y="246.190912" style="fill-opacity: 0; stroke: #000000"/>
     <use xlink:href="#mceef454486" x="429.904724" y="277.446987" style="fill-opacity: 0; stroke: #000000"/>
     <use xlink:href="#mceef454486" x="429.904724" y="281.020781" style="fill-opacity: 0; stroke: #000000"/>
     <use xlink:href="#mceef454486" x="429.904724" y="226.531126" style="fill-opacity: 0; stroke: #000000"/>
     <use xlink:href="#mceef454486" x="429.904724" y="281.379529" style="fill-opacity: 0; stroke: #000000"/>
     <use xlink:href="#mceef454486" x="429.904724" y="276.607931" style="fill-opacity: 0; stroke: #000000"/>
    </g>
   </g>
   <g id="line2d_21">
    <path d="M 153.454551 317.589806 
L 192.028994 317.589806 
" clip-path="url(#p789f6de418)" style="fill: none; stroke: #ff7f0e; stroke-linecap: square"/>
   </g>
   <g id="line2d_22">
    <path d="M 410.617502 315.333185 
L 449.191945 315.333185 
" clip-path="url(#p789f6de418)" style="fill: none; stroke: #ff7f0e; stroke-linecap: square"/>
   </g>
   <g id="patch_3">
    <path d="M 44.160297 338.746696 
L 44.160297 22.926587 
" style="fill: none; stroke: #000000; stroke-width: 0.8; stroke-linejoin: miter; stroke-linecap: square"/>
   </g>
   <g id="patch_4">
    <path d="M 558.486199 338.746696 
L 558.486199 22.926587 
" style="fill: none; stroke: #000000; stroke-width: 0.8; stroke-linejoin: miter; stroke-linecap: square"/>
   </g>
   <g id="patch_5">
    <path d="M 44.160297 338.746696 
L 558.486199 338.746696 
" style="fill: none; stroke: #000000; stroke-width: 0.8; stroke-linejoin: miter; stroke-linecap: square"/>
   </g>
   <g id="patch_6">
    <path d="M 44.160297 22.926587 
L 558.486199 22.926587 
" style="fill: none; stroke: #000000; stroke-width: 0.8; stroke-linejoin: miter; stroke-linecap: square"/>
   </g>
   <g id="text_10">
    <!-- cvc5 filters vs z3 qf formulas -->
    <g transform="translate(217.850823 16.926587) scale(0.144 -0.144)">
     <defs>
      <path id="NimbusRomNo9L-Regu-71" d="M 2304 2713 
C 2010 2886 1818 2944 1568 2944 
C 768 2944 154 2228 154 1309 
C 154 505 576 -64 1178 -64 
C 1549 -64 1901 102 2182 409 
L 2182 -794 
C 2182 -1152 2067 -1248 1613 -1280 
L 1613 -1408 
L 3123 -1408 
L 3123 -1319 
C 2771 -1241 2720 -1189 2720 -916 
L 2720 2918 
L 2650 2918 
L 2304 2713 
z
M 2182 811 
C 2182 658 2157 575 2093 524 
C 1952 403 1741 326 1542 326 
C 1344 326 1171 390 1043 517 
C 838 703 704 1117 704 1539 
C 704 2292 1043 2764 1587 2764 
C 1984 2764 2182 2554 2182 2126 
L 2182 811 
z
" transform="scale(0.015625)"/>
      <path id="NimbusRomNo9L-Regu-66" d="M 1978 2880 
L 1190 2880 
L 1190 3611 
C 1190 3977 1312 4172 1555 4172 
C 1690 4172 1779 4109 1894 3926 
C 1997 3762 2074 3699 2182 3699 
C 2330 3699 2451 3813 2451 3958 
C 2451 4185 2170 4352 1786 4352 
C 1389 4352 1050 4179 883 3889 
C 717 3611 666 3384 659 2880 
L 134 2880 
L 134 2675 
L 659 2675 
L 659 665 
C 659 198 589 121 128 96 
L 128 0 
L 1792 0 
L 1792 96 
C 1267 115 1197 185 1197 665 
L 1197 2675 
L 1978 2675 
L 1978 2880 
z
" transform="scale(0.015625)"/>
      <path id="NimbusRomNo9L-Regu-6d" d="M 122 2547 
C 205 2566 256 2572 326 2572 
C 493 2572 550 2470 550 2163 
L 550 544 
C 550 198 461 102 102 96 
L 102 0 
L 1523 0 
L 1523 96 
C 1184 108 1088 179 1088 428 
L 1088 2233 
C 1088 2246 1139 2310 1184 2355 
C 1344 2502 1619 2611 1843 2611 
C 2125 2611 2266 2387 2266 1939 
L 2266 550 
C 2266 192 2195 121 1830 96 
L 1830 0 
L 3264 0 
L 3264 96 
C 2899 102 2803 211 2803 608 
L 2803 2220 
C 2995 2496 3206 2611 3501 2611 
C 3866 2611 3981 2438 3981 1907 
L 3981 556 
C 3981 192 3930 140 3558 96 
L 3558 0 
L 4960 0 
L 4960 96 
L 4794 108 
C 4602 121 4518 236 4518 486 
L 4518 1804 
C 4518 2560 4269 2944 3776 2944 
C 3405 2944 3078 2777 2733 2406 
C 2618 2771 2400 2944 2054 2944 
C 1773 2944 1594 2854 1062 2451 
L 1062 2931 
L 1018 2944 
C 691 2822 474 2751 122 2655 
L 122 2547 
z
" transform="scale(0.015625)"/>
      <path id="NimbusRomNo9L-Regu-75" d="M 3066 319 
L 3034 319 
C 2739 319 2669 390 2669 684 
L 2669 2880 
L 1658 2880 
L 1658 2771 
C 2054 2752 2131 2688 2131 2368 
L 2131 864 
C 2131 684 2099 595 2010 524 
C 1837 384 1638 307 1446 307 
C 1197 307 992 524 992 793 
L 992 2880 
L 58 2880 
L 58 2790 
C 365 2771 454 2675 454 2380 
L 454 768 
C 454 262 762 -64 1229 -64 
C 1466 -64 1715 38 1888 211 
L 2163 486 
L 2163 -45 
L 2189 -64 
C 2509 64 2739 134 3066 224 
L 3066 319 
z
" transform="scale(0.015625)"/>
      <path id="NimbusRomNo9L-Regu-61" d="M 2829 422 
C 2720 332 2643 300 2547 300 
C 2400 300 2355 390 2355 672 
L 2355 1920 
C 2355 2252 2323 2438 2227 2592 
C 2086 2822 1811 2944 1434 2944 
C 832 2944 358 2630 358 2227 
C 358 2080 486 1952 634 1952 
C 787 1952 922 2080 922 2220 
C 922 2246 915 2278 909 2323 
C 896 2380 890 2432 890 2476 
C 890 2649 1094 2790 1350 2790 
C 1664 2790 1837 2604 1837 2259 
L 1837 1868 
C 851 1472 742 1420 467 1177 
C 326 1049 237 832 237 620 
C 237 217 518 -64 909 -64 
C 1190 -64 1453 70 1843 403 
C 1875 70 1990 -64 2253 -64 
C 2470 -64 2605 12 2829 256 
L 2829 422 
z
M 1837 787 
C 1837 588 1805 531 1670 454 
C 1517 364 1338 307 1203 307 
C 979 307 800 524 800 800 
L 800 825 
C 800 1203 1062 1433 1837 1715 
L 1837 787 
z
" transform="scale(0.015625)"/>
     </defs>
     <use xlink:href="#NimbusRomNo9L-Regu-63" transform="scale(0.996264)"/>
     <use xlink:href="#NimbusRomNo9L-Regu-76" transform="translate(44.233569 0) scale(0.996264)"/>
     <use xlink:href="#NimbusRomNo9L-Regu-63" transform="translate(94.046769 0) scale(0.996264)"/>
     <use xlink:href="#NimbusRomNo9L-Regu-35" transform="translate(138.280338 0) scale(0.996264)"/>
     <use xlink:href="#NimbusRomNo9L-Regu-2" transform="translate(213.000139 0) scale(0.996264)"/>
     <use xlink:href="#NimbusRomNo9L-Regu-6c" transform="translate(268.391816 0) scale(0.996264)"/>
     <use xlink:href="#NimbusRomNo9L-Regu-74" transform="translate(296.086985 0) scale(0.996264)"/>
     <use xlink:href="#NimbusRomNo9L-Regu-65" transform="translate(323.782155 0) scale(0.996264)"/>
     <use xlink:href="#NimbusRomNo9L-Regu-72" transform="translate(368.015724 0) scale(0.996264)"/>
     <use xlink:href="#NimbusRomNo9L-Regu-73" transform="translate(401.190953 0) scale(0.996264)"/>
     <use xlink:href="#NimbusRomNo9L-Regu-76" transform="translate(464.85126 0) scale(0.996264)"/>
     <use xlink:href="#NimbusRomNo9L-Regu-73" transform="translate(514.66446 0) scale(0.996264)"/>
     <use xlink:href="#NimbusRomNo9L-Regu-7a" transform="translate(578.324767 0) scale(0.996264)"/>
     <use xlink:href="#NimbusRomNo9L-Regu-33" transform="translate(622.558335 0) scale(0.996264)"/>
     <use xlink:href="#NimbusRomNo9L-Regu-71" transform="translate(697.278136 0) scale(0.996264)"/>
     <use xlink:href="#NimbusRomNo9L-Regu-66" transform="translate(747.091337 0) scale(0.996264)"/>
     <use xlink:href="#NimbusRomNo9L-Regu-66" transform="translate(805.173167 0) scale(0.996264)"/>
     <use xlink:href="#NimbusRomNo9L-Regu-6f" transform="translate(838.348396 0) scale(0.996264)"/>
     <use xlink:href="#NimbusRomNo9L-Regu-72" transform="translate(888.161597 0) scale(0.996264)"/>
     <use xlink:href="#NimbusRomNo9L-Regu-6d" transform="translate(921.336827 0) scale(0.996264)"/>
     <use xlink:href="#NimbusRomNo9L-Regu-75" transform="translate(998.845197 0) scale(0.996264)"/>
     <use xlink:href="#NimbusRomNo9L-Regu-6c" transform="translate(1048.658397 0) scale(0.996264)"/>
     <use xlink:href="#NimbusRomNo9L-Regu-61" transform="translate(1076.353567 0) scale(0.996264)"/>
     <use xlink:href="#NimbusRomNo9L-Regu-73" transform="translate(1120.587135 0) scale(0.996264)"/>
    </g>
   </g>
  </g>
 </g>
 <defs>
  <clipPath id="p789f6de418">
   <rect x="44.160297" y="22.926587" width="514.325903" height="315.820109"/>
  </clipPath>
 </defs>
</svg>
